<mxfile host="app.diagrams.net" modified="2024-03-01T15:08:25.936Z" agent="Mozilla/5.0 (Windows NT 10.0; Win64; x64) AppleWebKit/537.36 (KHTML, like Gecko) Chrome/121.0.0.0 Safari/537.36" etag="fLPlnYTXUzUKAaGuyo6G" version="24.0.0" type="github">
  <diagram id="R2lEEEUBdFMjLlhIrx00" name="Page-1">
    <mxGraphModel dx="2085" dy="614" grid="1" gridSize="10" guides="1" tooltips="1" connect="1" arrows="1" fold="1" page="1" pageScale="1" pageWidth="850" pageHeight="1100" math="0" shadow="0" extFonts="Permanent Marker^https://fonts.googleapis.com/css?family=Permanent+Marker">
      <root>
        <mxCell id="0" />
        <mxCell id="1" parent="0" />
        <mxCell id="OntBS1cdpQItO2hHLr23-1" value="Turma" style="whiteSpace=wrap;html=1;align=center;" vertex="1" parent="1">
          <mxGeometry x="21" y="320" width="100" height="40" as="geometry" />
        </mxCell>
        <mxCell id="OntBS1cdpQItO2hHLr23-9" value="Tem" style="shape=rhombus;perimeter=rhombusPerimeter;whiteSpace=wrap;html=1;align=center;aspect=fixed;fontSize=8;" vertex="1" parent="1">
          <mxGeometry x="180" y="330" width="40" height="20" as="geometry" />
        </mxCell>
        <mxCell id="OntBS1cdpQItO2hHLr23-102" style="edgeStyle=orthogonalEdgeStyle;rounded=0;orthogonalLoop=1;jettySize=auto;html=1;exitX=0.5;exitY=0;exitDx=0;exitDy=0;entryX=0;entryY=0.5;entryDx=0;entryDy=0;" edge="1" parent="1" source="OntBS1cdpQItO2hHLr23-10" target="OntBS1cdpQItO2hHLr23-98">
          <mxGeometry relative="1" as="geometry" />
        </mxCell>
        <mxCell id="OntBS1cdpQItO2hHLr23-10" value="Encarregado de Educação" style="whiteSpace=wrap;html=1;align=center;" vertex="1" parent="1">
          <mxGeometry x="640" y="320" width="100" height="40" as="geometry" />
        </mxCell>
        <mxCell id="OntBS1cdpQItO2hHLr23-11" value="Pessoa" style="whiteSpace=wrap;html=1;align=center;" vertex="1" parent="1">
          <mxGeometry x="530" y="160" width="100" height="40" as="geometry" />
        </mxCell>
        <mxCell id="OntBS1cdpQItO2hHLr23-103" style="edgeStyle=orthogonalEdgeStyle;rounded=0;orthogonalLoop=1;jettySize=auto;html=1;exitX=0.5;exitY=0;exitDx=0;exitDy=0;entryX=0;entryY=0.5;entryDx=0;entryDy=0;" edge="1" parent="1" source="OntBS1cdpQItO2hHLr23-13" target="OntBS1cdpQItO2hHLr23-98">
          <mxGeometry relative="1" as="geometry" />
        </mxCell>
        <mxCell id="OntBS1cdpQItO2hHLr23-13" value="Pessoa c/ autorização" style="whiteSpace=wrap;html=1;align=center;" vertex="1" parent="1">
          <mxGeometry x="780" y="320" width="100" height="40" as="geometry" />
        </mxCell>
        <mxCell id="OntBS1cdpQItO2hHLr23-100" style="edgeStyle=orthogonalEdgeStyle;rounded=0;orthogonalLoop=1;jettySize=auto;html=1;exitX=0.5;exitY=0;exitDx=0;exitDy=0;entryX=0;entryY=0.5;entryDx=0;entryDy=0;" edge="1" parent="1" source="OntBS1cdpQItO2hHLr23-15" target="OntBS1cdpQItO2hHLr23-98">
          <mxGeometry relative="1" as="geometry" />
        </mxCell>
        <mxCell id="OntBS1cdpQItO2hHLr23-15" value="Professor" style="whiteSpace=wrap;html=1;align=center;" vertex="1" parent="1">
          <mxGeometry x="280" y="320" width="100" height="40" as="geometry" />
        </mxCell>
        <mxCell id="OntBS1cdpQItO2hHLr23-101" style="edgeStyle=orthogonalEdgeStyle;rounded=0;orthogonalLoop=1;jettySize=auto;html=1;exitX=0.5;exitY=0;exitDx=0;exitDy=0;entryX=0;entryY=0.5;entryDx=0;entryDy=0;" edge="1" parent="1" source="OntBS1cdpQItO2hHLr23-16" target="OntBS1cdpQItO2hHLr23-98">
          <mxGeometry relative="1" as="geometry">
            <mxPoint x="540" y="270" as="targetPoint" />
          </mxGeometry>
        </mxCell>
        <mxCell id="OntBS1cdpQItO2hHLr23-16" value="Aluno" style="whiteSpace=wrap;html=1;align=center;" vertex="1" parent="1">
          <mxGeometry x="421" y="320" width="100" height="40" as="geometry" />
        </mxCell>
        <mxCell id="OntBS1cdpQItO2hHLr23-25" value="" style="shape=link;html=1;rounded=0;entryX=1;entryY=0.5;entryDx=0;entryDy=0;exitX=0;exitY=0.5;exitDx=0;exitDy=0;edgeStyle=orthogonalEdgeStyle;" edge="1" parent="1" source="OntBS1cdpQItO2hHLr23-9" target="OntBS1cdpQItO2hHLr23-1">
          <mxGeometry relative="1" as="geometry">
            <mxPoint x="172" y="340" as="sourcePoint" />
            <mxPoint x="311" y="420" as="targetPoint" />
          </mxGeometry>
        </mxCell>
        <mxCell id="OntBS1cdpQItO2hHLr23-26" value="N" style="resizable=0;html=1;whiteSpace=wrap;align=right;verticalAlign=bottom;fontSize=7;" connectable="0" vertex="1" parent="OntBS1cdpQItO2hHLr23-25">
          <mxGeometry x="1" relative="1" as="geometry">
            <mxPoint x="10" as="offset" />
          </mxGeometry>
        </mxCell>
        <mxCell id="OntBS1cdpQItO2hHLr23-27" value="" style="endArrow=none;html=1;rounded=0;entryX=0;entryY=0.5;entryDx=0;entryDy=0;exitX=1;exitY=0.5;exitDx=0;exitDy=0;edgeStyle=orthogonalEdgeStyle;" edge="1" parent="1" source="OntBS1cdpQItO2hHLr23-9" target="OntBS1cdpQItO2hHLr23-15">
          <mxGeometry relative="1" as="geometry">
            <mxPoint x="170" y="430" as="sourcePoint" />
            <mxPoint x="330" y="430" as="targetPoint" />
          </mxGeometry>
        </mxCell>
        <mxCell id="OntBS1cdpQItO2hHLr23-28" value="1" style="resizable=0;html=1;whiteSpace=wrap;align=right;verticalAlign=bottom;fontSize=7;" connectable="0" vertex="1" parent="OntBS1cdpQItO2hHLr23-27">
          <mxGeometry x="1" relative="1" as="geometry">
            <mxPoint as="offset" />
          </mxGeometry>
        </mxCell>
        <mxCell id="OntBS1cdpQItO2hHLr23-30" value="Identificador" style="ellipse;whiteSpace=wrap;html=1;align=center;fontStyle=4;aspect=fixed;fontSize=8;" vertex="1" parent="1">
          <mxGeometry x="111" y="400" width="60" height="24" as="geometry" />
        </mxCell>
        <mxCell id="OntBS1cdpQItO2hHLr23-31" value="&lt;span style=&quot;border-bottom: 1px dotted; font-size: 7px;&quot;&gt;Número máximo de alunos&lt;/span&gt;" style="ellipse;whiteSpace=wrap;html=1;align=center;aspect=fixed;fontSize=7;" vertex="1" parent="1">
          <mxGeometry x="-29" y="400" width="60" height="24" as="geometry" />
        </mxCell>
        <mxCell id="OntBS1cdpQItO2hHLr23-33" value="Designação" style="ellipse;whiteSpace=wrap;html=1;align=center;aspect=fixed;fontSize=8;" vertex="1" parent="1">
          <mxGeometry x="41" y="400" width="60" height="24" as="geometry" />
        </mxCell>
        <mxCell id="OntBS1cdpQItO2hHLr23-34" value="" style="endArrow=none;html=1;rounded=0;exitX=0.5;exitY=0;exitDx=0;exitDy=0;entryX=0.5;entryY=1;entryDx=0;entryDy=0;" edge="1" parent="1" source="OntBS1cdpQItO2hHLr23-31" target="OntBS1cdpQItO2hHLr23-1">
          <mxGeometry relative="1" as="geometry">
            <mxPoint x="11" y="410" as="sourcePoint" />
            <mxPoint x="171" y="410" as="targetPoint" />
          </mxGeometry>
        </mxCell>
        <mxCell id="OntBS1cdpQItO2hHLr23-35" value="" style="endArrow=none;html=1;rounded=0;exitX=0.5;exitY=0;exitDx=0;exitDy=0;entryX=0.5;entryY=1;entryDx=0;entryDy=0;" edge="1" parent="1" source="OntBS1cdpQItO2hHLr23-33" target="OntBS1cdpQItO2hHLr23-1">
          <mxGeometry relative="1" as="geometry">
            <mxPoint x="91" y="390" as="sourcePoint" />
            <mxPoint x="251" y="390" as="targetPoint" />
          </mxGeometry>
        </mxCell>
        <mxCell id="OntBS1cdpQItO2hHLr23-36" value="" style="endArrow=none;html=1;rounded=0;exitX=0.5;exitY=0;exitDx=0;exitDy=0;entryX=0.5;entryY=1;entryDx=0;entryDy=0;" edge="1" parent="1" source="OntBS1cdpQItO2hHLr23-30" target="OntBS1cdpQItO2hHLr23-1">
          <mxGeometry relative="1" as="geometry">
            <mxPoint x="161" y="380" as="sourcePoint" />
            <mxPoint x="321" y="380" as="targetPoint" />
          </mxGeometry>
        </mxCell>
        <mxCell id="OntBS1cdpQItO2hHLr23-37" value="Tem" style="shape=rhombus;perimeter=rhombusPerimeter;whiteSpace=wrap;html=1;align=center;aspect=fixed;fontSize=8;rotation=-90;" vertex="1" parent="1">
          <mxGeometry x="51" y="210" width="40" height="20" as="geometry" />
        </mxCell>
        <mxCell id="OntBS1cdpQItO2hHLr23-38" value="" style="shape=link;html=1;rounded=0;entryX=0.5;entryY=0;entryDx=0;entryDy=0;" edge="1" parent="1" target="OntBS1cdpQItO2hHLr23-1">
          <mxGeometry relative="1" as="geometry">
            <mxPoint x="71" y="240" as="sourcePoint" />
            <mxPoint x="191" y="250" as="targetPoint" />
          </mxGeometry>
        </mxCell>
        <mxCell id="OntBS1cdpQItO2hHLr23-39" value="M" style="resizable=0;html=1;whiteSpace=wrap;align=left;verticalAlign=bottom;fontSize=7;" connectable="0" vertex="1" parent="OntBS1cdpQItO2hHLr23-38">
          <mxGeometry x="-1" relative="1" as="geometry">
            <mxPoint x="10" y="-100" as="offset" />
          </mxGeometry>
        </mxCell>
        <mxCell id="OntBS1cdpQItO2hHLr23-40" value="N" style="resizable=0;html=1;whiteSpace=wrap;align=right;verticalAlign=bottom;fontSize=7;" connectable="0" vertex="1" parent="OntBS1cdpQItO2hHLr23-38">
          <mxGeometry x="1" relative="1" as="geometry">
            <mxPoint x="-10" y="-10" as="offset" />
          </mxGeometry>
        </mxCell>
        <mxCell id="OntBS1cdpQItO2hHLr23-44" value="" style="shape=link;html=1;rounded=0;entryX=1;entryY=0.5;entryDx=0;entryDy=0;" edge="1" parent="1" target="OntBS1cdpQItO2hHLr23-37">
          <mxGeometry relative="1" as="geometry">
            <mxPoint x="71" y="120" as="sourcePoint" />
            <mxPoint x="221" y="170" as="targetPoint" />
          </mxGeometry>
        </mxCell>
        <mxCell id="OntBS1cdpQItO2hHLr23-47" value="Atividades" style="whiteSpace=wrap;html=1;align=center;" vertex="1" parent="1">
          <mxGeometry x="21" y="80" width="100" height="40" as="geometry" />
        </mxCell>
        <mxCell id="OntBS1cdpQItO2hHLr23-48" value="Identificador" style="ellipse;whiteSpace=wrap;html=1;align=center;fontStyle=4;aspect=fixed;fontSize=8;" vertex="1" parent="1">
          <mxGeometry x="-29" y="16" width="60" height="24" as="geometry" />
        </mxCell>
        <mxCell id="OntBS1cdpQItO2hHLr23-51" value="Designação" style="ellipse;whiteSpace=wrap;html=1;align=center;aspect=fixed;fontSize=8;" vertex="1" parent="1">
          <mxGeometry x="41" y="16" width="60" height="24" as="geometry" />
        </mxCell>
        <mxCell id="OntBS1cdpQItO2hHLr23-52" value="" style="endArrow=none;html=1;rounded=0;exitX=0.5;exitY=1;exitDx=0;exitDy=0;entryX=0.5;entryY=0;entryDx=0;entryDy=0;" edge="1" parent="1" source="OntBS1cdpQItO2hHLr23-51" target="OntBS1cdpQItO2hHLr23-47">
          <mxGeometry relative="1" as="geometry">
            <mxPoint x="131" y="20" as="sourcePoint" />
            <mxPoint x="111" y="-10" as="targetPoint" />
          </mxGeometry>
        </mxCell>
        <mxCell id="OntBS1cdpQItO2hHLr23-53" value="Custo" style="ellipse;whiteSpace=wrap;html=1;align=center;aspect=fixed;fontSize=8;" vertex="1" parent="1">
          <mxGeometry x="111" y="16" width="60" height="24" as="geometry" />
        </mxCell>
        <mxCell id="OntBS1cdpQItO2hHLr23-54" value="" style="endArrow=none;html=1;rounded=0;exitX=0.5;exitY=1;exitDx=0;exitDy=0;entryX=0.5;entryY=0;entryDx=0;entryDy=0;" edge="1" parent="1" source="OntBS1cdpQItO2hHLr23-53" target="OntBS1cdpQItO2hHLr23-47">
          <mxGeometry relative="1" as="geometry">
            <mxPoint x="141" y="30" as="sourcePoint" />
            <mxPoint x="121" as="targetPoint" />
          </mxGeometry>
        </mxCell>
        <mxCell id="OntBS1cdpQItO2hHLr23-55" value="" style="endArrow=none;html=1;rounded=0;exitX=0.5;exitY=1;exitDx=0;exitDy=0;entryX=0.5;entryY=0;entryDx=0;entryDy=0;" edge="1" parent="1" source="OntBS1cdpQItO2hHLr23-48" target="OntBS1cdpQItO2hHLr23-47">
          <mxGeometry relative="1" as="geometry">
            <mxPoint x="81" y="50" as="sourcePoint" />
            <mxPoint x="81" y="90" as="targetPoint" />
          </mxGeometry>
        </mxCell>
        <mxCell id="OntBS1cdpQItO2hHLr23-58" value="Data de Nascimento" style="ellipse;whiteSpace=wrap;html=1;align=center;aspect=fixed;fontSize=8;" vertex="1" parent="1">
          <mxGeometry x="670" y="56" width="60" height="24" as="geometry" />
        </mxCell>
        <mxCell id="OntBS1cdpQItO2hHLr23-59" value="Número CC" style="ellipse;whiteSpace=wrap;html=1;align=center;fontStyle=4;aspect=fixed;fontSize=8;" vertex="1" parent="1">
          <mxGeometry x="510" y="56" width="60" height="24" as="geometry" />
        </mxCell>
        <mxCell id="OntBS1cdpQItO2hHLr23-61" value="Nome" style="ellipse;whiteSpace=wrap;html=1;align=center;aspect=fixed;fontSize=8;" vertex="1" parent="1">
          <mxGeometry x="430" y="56" width="60" height="24" as="geometry" />
        </mxCell>
        <mxCell id="OntBS1cdpQItO2hHLr23-62" value="Morada" style="ellipse;whiteSpace=wrap;html=1;align=center;aspect=fixed;fontSize=8;" vertex="1" parent="1">
          <mxGeometry x="590" y="56" width="60" height="24" as="geometry" />
        </mxCell>
        <mxCell id="OntBS1cdpQItO2hHLr23-63" value="" style="endArrow=none;html=1;rounded=0;exitX=0.5;exitY=1;exitDx=0;exitDy=0;entryX=0.5;entryY=0;entryDx=0;entryDy=0;" edge="1" parent="1" source="OntBS1cdpQItO2hHLr23-61" target="OntBS1cdpQItO2hHLr23-11">
          <mxGeometry relative="1" as="geometry">
            <mxPoint x="510" y="150" as="sourcePoint" />
            <mxPoint x="670" y="150" as="targetPoint" />
          </mxGeometry>
        </mxCell>
        <mxCell id="OntBS1cdpQItO2hHLr23-64" value="" style="endArrow=none;html=1;rounded=0;exitX=0.5;exitY=1;exitDx=0;exitDy=0;" edge="1" parent="1" source="OntBS1cdpQItO2hHLr23-59">
          <mxGeometry relative="1" as="geometry">
            <mxPoint x="470" y="90" as="sourcePoint" />
            <mxPoint x="580" y="160" as="targetPoint" />
          </mxGeometry>
        </mxCell>
        <mxCell id="OntBS1cdpQItO2hHLr23-65" value="" style="endArrow=none;html=1;rounded=0;exitX=0.5;exitY=1;exitDx=0;exitDy=0;entryX=0.5;entryY=0;entryDx=0;entryDy=0;" edge="1" parent="1" source="OntBS1cdpQItO2hHLr23-62" target="OntBS1cdpQItO2hHLr23-11">
          <mxGeometry relative="1" as="geometry">
            <mxPoint x="550" y="90" as="sourcePoint" />
            <mxPoint x="590" y="170" as="targetPoint" />
          </mxGeometry>
        </mxCell>
        <mxCell id="OntBS1cdpQItO2hHLr23-66" value="" style="endArrow=none;html=1;rounded=0;exitX=0.5;exitY=1;exitDx=0;exitDy=0;entryX=0.5;entryY=0;entryDx=0;entryDy=0;" edge="1" parent="1" source="OntBS1cdpQItO2hHLr23-58" target="OntBS1cdpQItO2hHLr23-11">
          <mxGeometry relative="1" as="geometry">
            <mxPoint x="630" y="90" as="sourcePoint" />
            <mxPoint x="590" y="170" as="targetPoint" />
          </mxGeometry>
        </mxCell>
        <mxCell id="OntBS1cdpQItO2hHLr23-69" value="Nº funcionário" style="ellipse;whiteSpace=wrap;html=1;align=center;fontStyle=4;aspect=fixed;fontSize=8;" vertex="1" parent="1">
          <mxGeometry x="230" y="400" width="60" height="24" as="geometry" />
        </mxCell>
        <mxCell id="OntBS1cdpQItO2hHLr23-70" value="Email" style="ellipse;whiteSpace=wrap;html=1;align=center;aspect=fixed;fontSize=8;" vertex="1" parent="1">
          <mxGeometry x="370" y="400" width="60" height="24" as="geometry" />
        </mxCell>
        <mxCell id="OntBS1cdpQItO2hHLr23-71" value="Contacto telefónico" style="ellipse;whiteSpace=wrap;html=1;align=center;aspect=fixed;fontSize=8;" vertex="1" parent="1">
          <mxGeometry x="300" y="400" width="60" height="24" as="geometry" />
        </mxCell>
        <mxCell id="OntBS1cdpQItO2hHLr23-72" value="Relação c/ educando" style="ellipse;whiteSpace=wrap;html=1;align=center;fontStyle=4;aspect=fixed;fontSize=8;" vertex="1" parent="1">
          <mxGeometry x="590" y="400" width="60" height="24" as="geometry" />
        </mxCell>
        <mxCell id="OntBS1cdpQItO2hHLr23-73" value="Email" style="ellipse;whiteSpace=wrap;html=1;align=center;aspect=fixed;fontSize=8;" vertex="1" parent="1">
          <mxGeometry x="730" y="400" width="60" height="24" as="geometry" />
        </mxCell>
        <mxCell id="OntBS1cdpQItO2hHLr23-74" value="Contacto telefónico" style="ellipse;whiteSpace=wrap;html=1;align=center;aspect=fixed;fontSize=8;" vertex="1" parent="1">
          <mxGeometry x="660" y="400" width="60" height="24" as="geometry" />
        </mxCell>
        <mxCell id="OntBS1cdpQItO2hHLr23-75" value="Tem" style="shape=rhombus;perimeter=rhombusPerimeter;whiteSpace=wrap;html=1;align=center;aspect=fixed;fontSize=8;" vertex="1" parent="1">
          <mxGeometry x="560" y="330" width="40" height="20" as="geometry" />
        </mxCell>
        <mxCell id="OntBS1cdpQItO2hHLr23-76" value="" style="shape=link;html=1;rounded=0;entryX=1;entryY=0.5;entryDx=0;entryDy=0;exitX=0;exitY=0.5;exitDx=0;exitDy=0;edgeStyle=orthogonalEdgeStyle;" edge="1" parent="1" source="OntBS1cdpQItO2hHLr23-75" target="OntBS1cdpQItO2hHLr23-16">
          <mxGeometry relative="1" as="geometry">
            <mxPoint x="544" y="340" as="sourcePoint" />
            <mxPoint x="481" y="340" as="targetPoint" />
          </mxGeometry>
        </mxCell>
        <mxCell id="OntBS1cdpQItO2hHLr23-77" value="N" style="resizable=0;html=1;whiteSpace=wrap;align=right;verticalAlign=bottom;fontSize=7;" connectable="0" vertex="1" parent="OntBS1cdpQItO2hHLr23-76">
          <mxGeometry x="1" relative="1" as="geometry">
            <mxPoint x="10" as="offset" />
          </mxGeometry>
        </mxCell>
        <mxCell id="OntBS1cdpQItO2hHLr23-78" value="" style="endArrow=none;html=1;rounded=0;exitX=1;exitY=0.5;exitDx=0;exitDy=0;edgeStyle=orthogonalEdgeStyle;entryX=0;entryY=0.5;entryDx=0;entryDy=0;" edge="1" parent="1" source="OntBS1cdpQItO2hHLr23-75" target="OntBS1cdpQItO2hHLr23-10">
          <mxGeometry relative="1" as="geometry">
            <mxPoint x="571" y="430" as="sourcePoint" />
            <mxPoint x="640" y="340" as="targetPoint" />
          </mxGeometry>
        </mxCell>
        <mxCell id="OntBS1cdpQItO2hHLr23-79" value="1" style="resizable=0;html=1;whiteSpace=wrap;align=right;verticalAlign=bottom;fontSize=7;" connectable="0" vertex="1" parent="OntBS1cdpQItO2hHLr23-78">
          <mxGeometry x="1" relative="1" as="geometry">
            <mxPoint as="offset" />
          </mxGeometry>
        </mxCell>
        <mxCell id="OntBS1cdpQItO2hHLr23-80" value="Relação c/ educando" style="ellipse;whiteSpace=wrap;html=1;align=center;fontStyle=4;aspect=fixed;fontSize=8;" vertex="1" parent="1">
          <mxGeometry x="920" y="296" width="60" height="24" as="geometry" />
        </mxCell>
        <mxCell id="OntBS1cdpQItO2hHLr23-81" value="Email" style="ellipse;whiteSpace=wrap;html=1;align=center;aspect=fixed;fontSize=8;" vertex="1" parent="1">
          <mxGeometry x="920" y="360" width="60" height="24" as="geometry" />
        </mxCell>
        <mxCell id="OntBS1cdpQItO2hHLr23-82" value="Contacto telefónico" style="ellipse;whiteSpace=wrap;html=1;align=center;aspect=fixed;fontSize=8;" vertex="1" parent="1">
          <mxGeometry x="920" y="328" width="60" height="24" as="geometry" />
        </mxCell>
        <mxCell id="OntBS1cdpQItO2hHLr23-84" value="&lt;font style=&quot;font-size: 7px;&quot;&gt;Levanta/Entrega&lt;/font&gt;" style="shape=rhombus;perimeter=rhombusPerimeter;whiteSpace=wrap;html=1;align=center;aspect=fixed;fontSize=8;" vertex="1" parent="1">
          <mxGeometry x="611" y="480" width="70" height="35" as="geometry" />
        </mxCell>
        <mxCell id="OntBS1cdpQItO2hHLr23-85" value="" style="shape=link;html=1;rounded=0;entryX=0.5;entryY=1;entryDx=0;entryDy=0;exitX=0;exitY=0.5;exitDx=0;exitDy=0;edgeStyle=orthogonalEdgeStyle;" edge="1" parent="1" source="OntBS1cdpQItO2hHLr23-84" target="OntBS1cdpQItO2hHLr23-16">
          <mxGeometry relative="1" as="geometry">
            <mxPoint x="580" y="450" as="sourcePoint" />
            <mxPoint x="740" y="450" as="targetPoint" />
          </mxGeometry>
        </mxCell>
        <mxCell id="OntBS1cdpQItO2hHLr23-86" value="N" style="resizable=0;html=1;whiteSpace=wrap;align=right;verticalAlign=bottom;fontSize=7;" connectable="0" vertex="1" parent="OntBS1cdpQItO2hHLr23-85">
          <mxGeometry x="1" relative="1" as="geometry">
            <mxPoint x="20" y="20" as="offset" />
          </mxGeometry>
        </mxCell>
        <mxCell id="OntBS1cdpQItO2hHLr23-87" value="" style="endArrow=none;html=1;rounded=0;entryX=0.5;entryY=1;entryDx=0;entryDy=0;exitX=1;exitY=0.5;exitDx=0;exitDy=0;edgeStyle=orthogonalEdgeStyle;" edge="1" parent="1" source="OntBS1cdpQItO2hHLr23-84" target="OntBS1cdpQItO2hHLr23-13">
          <mxGeometry relative="1" as="geometry">
            <mxPoint x="620" y="410" as="sourcePoint" />
            <mxPoint x="780" y="410" as="targetPoint" />
          </mxGeometry>
        </mxCell>
        <mxCell id="OntBS1cdpQItO2hHLr23-88" value="1" style="resizable=0;html=1;whiteSpace=wrap;align=right;verticalAlign=bottom;fontSize=7;" connectable="0" vertex="1" parent="OntBS1cdpQItO2hHLr23-87">
          <mxGeometry x="1" relative="1" as="geometry">
            <mxPoint x="-10" y="20" as="offset" />
          </mxGeometry>
        </mxCell>
        <mxCell id="OntBS1cdpQItO2hHLr23-91" value="" style="endArrow=none;html=1;rounded=0;exitX=0.5;exitY=0;exitDx=0;exitDy=0;entryX=0.5;entryY=1;entryDx=0;entryDy=0;" edge="1" parent="1" source="OntBS1cdpQItO2hHLr23-72" target="OntBS1cdpQItO2hHLr23-10">
          <mxGeometry relative="1" as="geometry">
            <mxPoint x="580" y="370" as="sourcePoint" />
            <mxPoint x="740" y="370" as="targetPoint" />
          </mxGeometry>
        </mxCell>
        <mxCell id="OntBS1cdpQItO2hHLr23-92" value="" style="endArrow=none;html=1;rounded=0;exitX=0.5;exitY=0;exitDx=0;exitDy=0;entryX=0.5;entryY=1;entryDx=0;entryDy=0;" edge="1" parent="1" source="OntBS1cdpQItO2hHLr23-74" target="OntBS1cdpQItO2hHLr23-10">
          <mxGeometry relative="1" as="geometry">
            <mxPoint x="630" y="410" as="sourcePoint" />
            <mxPoint x="700" y="370" as="targetPoint" />
          </mxGeometry>
        </mxCell>
        <mxCell id="OntBS1cdpQItO2hHLr23-93" value="" style="endArrow=none;html=1;rounded=0;exitX=0.5;exitY=0;exitDx=0;exitDy=0;" edge="1" parent="1" source="OntBS1cdpQItO2hHLr23-73">
          <mxGeometry relative="1" as="geometry">
            <mxPoint x="700" y="410" as="sourcePoint" />
            <mxPoint x="690" y="360" as="targetPoint" />
          </mxGeometry>
        </mxCell>
        <mxCell id="OntBS1cdpQItO2hHLr23-94" value="" style="endArrow=none;html=1;rounded=0;exitX=1;exitY=0.5;exitDx=0;exitDy=0;entryX=0;entryY=0.5;entryDx=0;entryDy=0;" edge="1" parent="1" source="OntBS1cdpQItO2hHLr23-13" target="OntBS1cdpQItO2hHLr23-80">
          <mxGeometry relative="1" as="geometry">
            <mxPoint x="880" y="280" as="sourcePoint" />
            <mxPoint x="1040" y="280" as="targetPoint" />
          </mxGeometry>
        </mxCell>
        <mxCell id="OntBS1cdpQItO2hHLr23-95" value="" style="endArrow=none;html=1;rounded=0;exitX=1;exitY=0.5;exitDx=0;exitDy=0;entryX=0;entryY=0.5;entryDx=0;entryDy=0;" edge="1" parent="1" source="OntBS1cdpQItO2hHLr23-13" target="OntBS1cdpQItO2hHLr23-82">
          <mxGeometry relative="1" as="geometry">
            <mxPoint x="890" y="350" as="sourcePoint" />
            <mxPoint x="930" y="318" as="targetPoint" />
          </mxGeometry>
        </mxCell>
        <mxCell id="OntBS1cdpQItO2hHLr23-96" value="" style="endArrow=none;html=1;rounded=0;entryX=0;entryY=0.5;entryDx=0;entryDy=0;" edge="1" parent="1" target="OntBS1cdpQItO2hHLr23-81">
          <mxGeometry relative="1" as="geometry">
            <mxPoint x="880" y="340" as="sourcePoint" />
            <mxPoint x="930" y="350" as="targetPoint" />
          </mxGeometry>
        </mxCell>
        <mxCell id="OntBS1cdpQItO2hHLr23-99" style="edgeStyle=orthogonalEdgeStyle;rounded=0;orthogonalLoop=1;jettySize=auto;html=1;exitX=1;exitY=0.5;exitDx=0;exitDy=0;entryX=0.5;entryY=1;entryDx=0;entryDy=0;" edge="1" parent="1" source="OntBS1cdpQItO2hHLr23-98" target="OntBS1cdpQItO2hHLr23-11">
          <mxGeometry relative="1" as="geometry" />
        </mxCell>
        <mxCell id="OntBS1cdpQItO2hHLr23-98" value="&lt;font style=&quot;font-size: 10px;&quot;&gt;IS-A&lt;/font&gt;" style="triangle;whiteSpace=wrap;html=1;aspect=fixed;direction=north;" vertex="1" parent="1">
          <mxGeometry x="553.335" y="230.005" width="53.33" height="40" as="geometry" />
        </mxCell>
        <mxCell id="OntBS1cdpQItO2hHLr23-104" value="" style="endArrow=none;html=1;rounded=0;exitX=0.5;exitY=0;exitDx=0;exitDy=0;entryX=0.5;entryY=1;entryDx=0;entryDy=0;" edge="1" parent="1" source="OntBS1cdpQItO2hHLr23-69" target="OntBS1cdpQItO2hHLr23-15">
          <mxGeometry width="50" height="50" relative="1" as="geometry">
            <mxPoint x="290" y="400" as="sourcePoint" />
            <mxPoint x="330" y="360" as="targetPoint" />
          </mxGeometry>
        </mxCell>
        <mxCell id="OntBS1cdpQItO2hHLr23-105" value="" style="endArrow=none;html=1;rounded=0;exitX=0.5;exitY=0;exitDx=0;exitDy=0;entryX=0.5;entryY=1;entryDx=0;entryDy=0;" edge="1" parent="1" source="OntBS1cdpQItO2hHLr23-71" target="OntBS1cdpQItO2hHLr23-15">
          <mxGeometry width="50" height="50" relative="1" as="geometry">
            <mxPoint x="270" y="410" as="sourcePoint" />
            <mxPoint x="340" y="370" as="targetPoint" />
          </mxGeometry>
        </mxCell>
        <mxCell id="OntBS1cdpQItO2hHLr23-106" value="" style="endArrow=none;html=1;rounded=0;exitX=0.5;exitY=0;exitDx=0;exitDy=0;entryX=0.5;entryY=1;entryDx=0;entryDy=0;" edge="1" parent="1" source="OntBS1cdpQItO2hHLr23-70" target="OntBS1cdpQItO2hHLr23-15">
          <mxGeometry width="50" height="50" relative="1" as="geometry">
            <mxPoint x="340" y="410" as="sourcePoint" />
            <mxPoint x="340" y="370" as="targetPoint" />
          </mxGeometry>
        </mxCell>
      </root>
    </mxGraphModel>
  </diagram>
</mxfile>
